# xmcd
#
# Track frame offsets:
#	150
#	14917
#	30645
#	64762
#	78080
#	104550
#	135292
#	154323
#	182657
#	214702
#
# Disc length: 2998 seconds
#
# Revision: 1
# Processed by: cddbd v1.5.2PL0 Copyright (c) Steve Scherf et al.
# Submitted via: audiograbber 1.83.01
#
DISCID=820bb40a
DTITLE=The Burnsville Band - Give Me A Job
DYEAR=2010
DGENRE=Blues
TTITLE0=Mississippi Mud
TTITLE1=Maybe Later
TTITLE2=Driving Wheel
TTITLE3=Locked Up
TTITLE4=Biscuits and Gravy
TTITLE5=Ristocrat Blues
TTITLE6=Cut You Loose
TTITLE7=Treat Me So Bad
TTITLE8=Give Me A Job
TTITLE9=Road Warrior Blues
EXTD=DoubleBarrelRecords.com
EXTT0=
EXTT1=
EXTT2=
EXTT3=
EXTT4=
EXTT5=
EXTT6=
EXTT7=
EXTT8=
EXTT9=
PLAYORDER=
